<svg xmlns="http://www.w3.org/2000/svg" viewBox="0 0 760 480" role="img" aria-label="Bluetooth Streaming">
  <rect width="760" height="480" rx="20" fill="#f7f2ce"/>
  <circle cx="380" cy="222" r="168" fill="#ffffff"/>
  <circle cx="380" cy="222" r="168" fill="none" stroke="#aacc00" stroke-width="2" opacity="0.6"/>
  
    <g transform="translate(300,230) rotate(6) scale(1.2)">
    <path d="M0,-34 C26,-34 40,-14 40,10 C40,40 22,58 -2,58 C-20,58 -30,44 -30,26 C-30,2 -24,-34 0,-34 Z" fill="#58781b"/>
    <circle cx="-6" cy="2" r="9" fill="#aacc00"/>
    <path d="M30,-22 C54,-30 70,-18 78,2" fill="none" stroke="#445e15" stroke-width="5" stroke-linecap="round"/>
    <circle cx="80" cy="6" r="9" fill="#445e15"/>
  </g>
    <g transform="translate(470,200)">
      <circle cx="0" cy="0" r="48" fill="#58781b"/>
      <path d="M-8,-26 L14,-10 -8,8 -8,-26 M-8,26 L14,10 -8,-8" fill="none" stroke="#ffffff" stroke-width="6" stroke-linejoin="round" stroke-linecap="round"/>
    </g>
    <path d="M 470 160 A 40 40 0 0 1 510 200" fill="none" stroke="#aacc00" stroke-width="5" stroke-linecap="round" opacity="0.85"/><path d="M 470 134 A 66 66 0 0 1 536 200" fill="none" stroke="#aacc00" stroke-width="5" stroke-linecap="round" opacity="0.6499999999999999"/><path d="M 470 108 A 92 92 0 0 1 562 200" fill="none" stroke="#aacc00" stroke-width="5" stroke-linecap="round" opacity="0.44999999999999996"/>
    <g transform="translate(540,250)">
      <rect x="0" y="0" width="70" height="120" rx="12" fill="#ffffff" stroke="#445e15" stroke-width="5"/>
      <rect x="10" y="14" width="50" height="78" rx="4" fill="#eef3e0"/>
      <circle cx="35" cy="104" r="6" fill="#445e15"/>
    </g>
  <g>
    <rect x="250" y="408" width="260" height="40" rx="20" fill="#58781b"/>
    <text x="380" y="434" text-anchor="middle" font-family="Georgia, serif" font-size="20" fill="#ffffff">Bluetooth Streaming</text>
  </g>
</svg>