<svg xmlns="http://www.w3.org/2000/svg" viewBox="0 0 760 480" role="img" aria-label="Invisible (IIC / CIC)">
  <rect width="760" height="480" rx="20" fill="#f7f2ce"/>
  <circle cx="380" cy="222" r="168" fill="#ffffff"/>
  <circle cx="380" cy="222" r="168" fill="none" stroke="#aacc00" stroke-width="2" opacity="0.6"/>
  
    <g transform="translate(380,222)">
      <path d="M-70,-60 C-10,-110 90,-90 95,-10 C100,60 40,100 -10,90 C-55,82 -50,40 -25,30 C-5,22 5,40 -8,52" fill="none" stroke="#756c68" stroke-width="10" stroke-linecap="round" opacity="0.55"/>
      <circle cx="6" cy="20" r="20" fill="#58781b"/>
      <circle cx="6" cy="20" r="9" fill="#aacc00"/>
      <circle cx="6" cy="20" r="40" fill="none" stroke="#58781b" stroke-width="3" stroke-dasharray="5 9" opacity="0.8"/>
      <path d="M70,-78 l8,16 16,8 -16,8 -8,16 -8,-16 -16,-8 16,-8 z" fill="#aacc00"/>
      <path d="M-86,-6 l5,10 10,5 -10,5 -5,10 -5,-10 -10,-5 10,-5 z" fill="#aacc00" opacity="0.8"/>
    </g>
  <g>
    <rect x="250" y="408" width="260" height="40" rx="20" fill="#58781b"/>
    <text x="380" y="434" text-anchor="middle" font-family="Georgia, serif" font-size="20" fill="#ffffff">Invisible (IIC / CIC)</text>
  </g>
</svg>