<svg xmlns="http://www.w3.org/2000/svg" viewBox="0 0 760 480" role="img" aria-label="Rechargeable">
  <rect width="760" height="480" rx="20" fill="#f7f2ce"/>
  <circle cx="380" cy="222" r="168" fill="#ffffff"/>
  <circle cx="380" cy="222" r="168" fill="none" stroke="#aacc00" stroke-width="2" opacity="0.6"/>
  
    <g transform="translate(380,222)">
      <rect x="-120" y="-30" width="240" height="120" rx="24" fill="#ffffff" stroke="#58781b" stroke-width="6"/>
      <rect x="-120" y="-30" width="240" height="34" rx="17" fill="#58781b"/>
      <g transform="translate(-58,46) rotate(0) scale(0.7)">
    <path d="M0,-34 C26,-34 40,-14 40,10 C40,40 22,58 -2,58 C-20,58 -30,44 -30,26 C-30,2 -24,-34 0,-34 Z" fill="#58781b"/>
    <circle cx="-6" cy="2" r="9" fill="#aacc00"/>
    <path d="M30,-22 C54,-30 70,-18 78,2" fill="none" stroke="#445e15" stroke-width="5" stroke-linecap="round"/>
    <circle cx="80" cy="6" r="9" fill="#445e15"/>
  </g>
      <g transform="translate(70,46) rotate(0) scale(0.7)">
    <path d="M0,-34 C26,-34 40,-14 40,10 C40,40 22,58 -2,58 C-20,58 -30,44 -30,26 C-30,2 -24,-34 0,-34 Z" fill="#58781b"/>
    <circle cx="-6" cy="2" r="9" fill="#aacc00"/>
    <path d="M30,-22 C54,-30 70,-18 78,2" fill="none" stroke="#445e15" stroke-width="5" stroke-linecap="round"/>
    <circle cx="80" cy="6" r="9" fill="#445e15"/>
  </g>
      <g transform="translate(0,30)">
        <path d="M6,-40 L-16,4 2,4 -6,40 22,-8 2,-8 z" fill="#aacc00" stroke="#445e15" stroke-width="2"/>
      </g>
    </g>
  <g>
    <rect x="250" y="408" width="260" height="40" rx="20" fill="#58781b"/>
    <text x="380" y="434" text-anchor="middle" font-family="Georgia, serif" font-size="20" fill="#ffffff">Rechargeable</text>
  </g>
</svg>