<svg xmlns="http://www.w3.org/2000/svg" viewBox="0 0 760 480" role="img" aria-label="Tinnitus Relief">
  <rect width="760" height="480" rx="20" fill="#f7f2ce"/>
  <circle cx="380" cy="222" r="168" fill="#ffffff"/>
  <circle cx="380" cy="222" r="168" fill="none" stroke="#aacc00" stroke-width="2" opacity="0.6"/>
  
    <g transform="translate(360,222)">
      <path d="M-60,-50 C-6,-96 84,-78 88,-8 C92,54 36,90 -8,80 C-50,72 -46,34 -22,26 C-4,20 4,36 -8,48" fill="none" stroke="#58781b" stroke-width="12" stroke-linecap="round"/>
      <circle cx="-2" cy="14" r="12" fill="#aacc00"/>
    </g>
    <path d="M 430 168 A 54 54 0 0 1 430 276" fill="none" stroke="#aacc00" stroke-width="6" stroke-linecap="round" opacity="0.8"/><path d="M 430 138 A 84 84 0 0 1 430 306" fill="none" stroke="#aacc00" stroke-width="6" stroke-linecap="round" opacity="0.6200000000000001"/><path d="M 430 108 A 114 114 0 0 1 430 336" fill="none" stroke="#aacc00" stroke-width="6" stroke-linecap="round" opacity="0.44000000000000006"/>
  
  <g>
    <rect x="250" y="408" width="260" height="40" rx="20" fill="#58781b"/>
    <text x="380" y="434" text-anchor="middle" font-family="Georgia, serif" font-size="20" fill="#ffffff">Tinnitus Relief</text>
  </g>
</svg>